# xmcd
#
# Track frame offsets:
#	150
#	10535
#	22572
#	32501
#	42698
#	54427
#	68231
#	82317
#	101050
#	114911
#	131613
#	142190
#	154015
#	169378
#	182279
#	194776
#	207657
#	217317
#	234855
#	253651
#
# Disc length: 3526 seconds
#
# Revision: 0
# Processed by: cddbd v1.5.2PL0 Copyright (c) Steve Scherf et al.
# Submitted via: EasyCDDAExtractor 10.0.3.1
#
DISCID=200dc414
DTITLE=Johnny Cash - The Legend Of Johnny Cash, Vol. 2
DYEAR=2006
DGENRE=Country
TTITLE0=There You Go
TTITLE1=Home Of The Blues
TTITLE2=Ballad Of A Teenage Queen
TTITLE3=The Ways Of A Woman In Love
TTITLE4=I Still Miss Someone
TTITLE5=Don't Take Your Guns To Town
TTITLE6=The Long Black Veil
TTITLE7=The Ballad Of Ira Hayes
TTITLE8=It Ain't Me Babe (With June Carter)
TTITLE9=Girl From The North Country (With Bob Dylan)
TTITLE10=Daddy Sang Bass
TTITLE11=Flesh And Blood
TTITLE12=The Night Hank Williams Came To Town (Feat. Waylon Jennings)
TTITLE13=That Old Wheel (With Hank Williams Jr.)
TTITLE14=The Beast In Me
TTITLE15=Unchained
TTITLE16=I Won't Back Down
TTITLE17=I Hung My Head
TTITLE18=Bird On A Wire (Live With Orchestra)
TTITLE19=In The Sweet By And By
EXTD=
EXTT0=
EXTT1=
EXTT2=
EXTT3=
EXTT4=
EXTT5=
EXTT6=
EXTT7=
EXTT8=
EXTT9=
EXTT10=
EXTT11=
EXTT12=
EXTT13=
EXTT14=
EXTT15=
EXTT16=
EXTT17=
EXTT18=
EXTT19=
PLAYORDER=
